<svg width="32" height="32" viewBox="0 0 32 32" fill="none" xmlns="http://www.w3.org/2000/svg">
<path d="M16 0C7.16344 0 0 7.16344 0 16C0 24.8366 7.16344 32 16 32C24.8366 32 32 24.8366 32 16C32 7.16344 24.8366 0 16 0Z" fill="#25D366"/>
<path d="M23.7139 8.28613C22.2086 6.77539 20.1763 5.94482 18.0098 5.94482C13.5171 5.94482 9.85986 9.60205 9.85986 14.0947C9.85986 15.4834 10.2319 16.8394 10.9316 18.0303L9.78516 22.2148L14.0674 21.0898C15.2153 21.7246 16.5063 22.0586 17.8198 22.0586H18.0098C22.5024 22.0586 26.1597 18.4014 26.1597 13.9087C26.1597 11.7476 25.2192 9.79688 23.7139 8.28613ZM18.0098 20.4756C16.8345 20.4756 15.6816 20.1572 14.6802 19.5547L14.4468 19.4189L11.8774 20.0913L12.5605 17.5928L12.4082 17.3486C11.7358 16.3081 11.3872 15.1123 11.3872 13.8945C11.3872 10.248 14.3633 7.27197 18.0151 7.27197C19.7739 7.27197 21.4243 7.94434 22.6475 9.16748C23.8706 10.3906 24.543 12.041 24.543 13.7998C24.5376 17.4463 21.5615 20.4756 18.0098 20.4756ZM21.5459 15.5273C21.3447 15.4243 20.415 14.9795 20.2354 14.9092C20.0557 14.8389 19.9258 14.8066 19.7959 15.0122C19.666 15.2178 19.3228 15.6304 19.2095 15.7603C19.0962 15.8901 18.9873 15.9067 18.7861 15.8037C18.585 15.7007 17.9614 15.5063 17.2295 14.8496C16.6602 14.3354 16.2773 13.7021 16.1685 13.501C16.0596 13.2998 16.1577 13.1968 16.2607 13.0938C16.3521 13.0024 16.4668 12.8667 16.5698 12.7534C16.6729 12.6401 16.7051 12.5596 16.7754 12.4297C16.8457 12.2998 16.8135 12.1865 16.7646 12.0835C16.7158 11.9805 16.3447 11.0508 16.1816 10.6484C16.023 10.2515 15.8594 10.3003 15.7407 10.2949C15.6274 10.2896 15.4976 10.2896 15.3677 10.2896C15.2378 10.2896 15.0259 10.3384 14.8462 10.5337C14.6665 10.729 14.1904 11.1738 14.1904 12.1035C14.1904 13.0332 14.8628 13.9307 14.9609 14.0605C15.0591 14.1904 16.3394 16.1587 18.291 16.9727C18.7681 17.1738 19.1392 17.293 19.4282 17.3848C19.9053 17.5376 20.3394 17.5161 20.6826 17.4673C21.0645 17.4131 21.8184 17.0161 21.9814 16.5879C22.1445 16.1597 22.1445 15.7954 22.0957 15.7148C22.0469 15.6343 21.917 15.5854 21.7158 15.4873L21.5459 15.5273Z" fill="white"/>
</svg>
